<?xml version="1.0" standalone="no"?>
<!DOCTYPE svg PUBLIC "-//W3C//DTD SVG 20010904//EN"
 "http://www.w3.org/TR/2001/REC-SVG-20010904/DTD/svg10.dtd">
<svg version="1.0" xmlns="http://www.w3.org/2000/svg"
 width="690.000000pt" height="690.000000pt" viewBox="0 0 690.000000 690.000000"
 preserveAspectRatio="xMidYMid meet">
<metadata>
Created by potrace 1.14, written by Peter Selinger 2001-2017
</metadata>
<g transform="translate(0.000000,690.000000) scale(0.100000,-0.100000)"
fill="#000000" stroke="none">
<path d="M0 3450 l0 -3450 3450 0 3450 0 0 3450 0 3450 -3450 0 -3450 0 0
-3450z m1609 2060 l140 -105 -2 -1894 -2 -1895 -110 -83 c-60 -46 -138 -106
-173 -133 -34 -28 -65 -50 -67 -50 -3 0 -5 972 -5 2161 l0 2160 39 -28 c22
-15 103 -75 180 -133z m3839 -3073 l-3 -1073 -175 130 -175 131 0 1884 0 1883
35 30 c44 38 255 198 290 219 l25 16 3 -1074 c1 -590 1 -1556 0 -2146z m-3246
2661 l148 -109 -1 -1360 c0 -748 -2 -1409 -6 -1469 l-6 -110 -156 -118 c-86
-65 -162 -121 -168 -126 -10 -6 -13 340 -13 1715 l0 1721 28 -17 c15 -10 93
-67 174 -127z m2638 -1579 l0 -1720 -27 20 c-16 11 -91 67 -168 123 l-140 104
-3 1471 -2 1472 162 125 c90 69 166 125 171 125 4 1 7 -773 7 -1720z m-1865
1012 c171 -129 340 -259 377 -288 37 -29 70 -53 74 -53 5 0 19 11 33 24 57 52
742 573 766 582 13 5 15 -24 15 -224 l0 -231 -97 -72 c-108 -80 -492 -377
-618 -477 -44 -36 -85 -67 -92 -69 -6 -2 -196 134 -422 303 l-411 307 0 239 0
239 33 -22 c17 -13 172 -129 342 -258z m1265 -775 c0 -199 -2 -226 -17 -244
-10 -10 -72 -59 -138 -107 -66 -49 -230 -174 -364 -279 -134 -105 -255 -200
-268 -210 -17 -13 -30 -16 -39 -10 -29 21 -761 576 -787 597 l-27 23 2 227 3
227 71 -48 c39 -26 223 -159 408 -297 186 -137 338 -250 340 -250 2 0 355 264
611 459 105 79 193 142 198 139 4 -2 7 -105 7 -227z m-1171 -929 l355 -265
159 121 c314 241 642 487 650 487 9 0 9 -288 1 -393 l-7 -77 -191 -144 c-105
-79 -274 -208 -375 -287 -101 -79 -197 -154 -214 -166 l-31 -23 -26 24 c-28
26 -484 371 -668 506 l-117 86 -3 237 -2 238 57 -39 c32 -22 217 -159 412
-305z"/>
</g>
</svg>
